<?xml version="1.0" encoding="utf-8"?>
<!-- Generator: Adobe Illustrator 26.5.0, SVG Export Plug-In . SVG Version: 6.00 Build 0)  -->
<svg version="1.1" id="Layer_1" xmlns="http://www.w3.org/2000/svg" xmlns:xlink="http://www.w3.org/1999/xlink" x="0px" y="0px"
	 viewBox="0 0 650.4 284.2" style="enable-background:new 0 0 650.4 284.2;" xml:space="preserve">
<style type="text/css">
	.st0{fill:#404040;}
	.st1{fill:#0055B8;}
</style>
<g>
	<path class="st0" d="M36.5,209.7h5.8l15.4,39.4h-5.8l-4.3-11.8H30.9l-4.4,11.8h-5.4L36.5,209.7z M32.6,232.8h13.3l-6.6-18.4h-0.1
		L32.6,232.8z"/>
	<path class="st0" d="M61.3,209.7h7.2l12.4,33.1l12.5-33.1h7.2v39.4h-5v-32.7h-0.1l-12.3,32.7h-4.5l-12.3-32.7h-0.1v32.7h-5V209.7z"
		/>
	<path class="st0" d="M108.9,209.7h27.2v4.4h-21.9v12.5h20.4v4.4h-20.4v13.6h22.1v4.4h-27.3V209.7z"/>
	<path class="st0" d="M142.3,209.7h18.5c7.4,0,12,4,12,10.3c0,4.7-2.1,8.7-6.8,10v0.1c4.6,0.9,5.5,4.2,5.9,8.1
		c0.3,3.9,0.1,8.2,2.3,10.9h-5.8c-1.5-1.6-0.7-5.8-1.4-9.7c-0.6-3.9-1.5-7.1-6.6-7.1h-12.8v16.8h-5.2V209.7z M158.5,227.9
		c4.9,0,9.1-1.3,9.1-7c0-3.9-2.1-6.7-7-6.7h-13v13.7H158.5z"/>
	<path class="st0" d="M180,209.7h5.2v39.4H180V209.7z"/>
	<path class="st0" d="M221.5,221.6c-1.1-5.6-5.6-8.4-11-8.4c-9.4,0-13.3,7.7-13.3,15.9c0,9,4,16.5,13.4,16.5
		c6.9,0,10.9-4.8,11.4-11.4h5.2c-1,9.8-7.1,15.8-17,15.8c-12.2,0-18.2-9-18.2-20.5c0-11.4,6.5-20.7,18.6-20.7
		c8.2,0,15,4.4,16.2,12.8H221.5z"/>
	<path class="st0" d="M244,209.7h5.8l15.4,39.4h-5.8l-4.3-11.8h-16.6l-4.4,11.8h-5.4L244,209.7z M240.1,232.8h13.3l-6.6-18.4h-0.1
		L240.1,232.8z"/>
	<path class="st0" d="M268.7,209.7h5.6l20.7,31.9h0.1v-31.9h5v39.4h-5.7l-20.6-31.6h-0.1v31.6h-5V209.7z"/>
</g>
<g>
	<path class="st0" d="M384.9,209.7h17.3c7.8,0,12.1,4.4,12.1,11.6s-4.2,11.7-12.1,11.6h-12v16.1h-5.2V209.7z M390.2,228.6h10.3
		c5.9,0.1,8.6-2.5,8.6-7.2s-2.7-7.2-8.6-7.2h-10.3V228.6z"/>
	<path class="st0" d="M419.3,209.7h5.2v34.9h20.8v4.4h-26.1V209.7z"/>
	<path class="st0" d="M461.4,209.7h5.8l15.4,39.4h-5.8l-4.3-11.8h-16.6l-4.4,11.8h-5.4L461.4,209.7z M457.5,232.8h13.3l-6.6-18.4
		h-0.1L457.5,232.8z"/>
	<path class="st0" d="M507.8,221.3c-0.6-5.6-4.4-8-9.8-8c-4.4,0-8.8,1.6-8.8,6.7c0,4.8,6.3,5.6,12.6,7c6.3,1.4,12.6,3.6,12.6,11.4
		c0,8.4-8.2,11.7-15.4,11.7c-8.8,0-16.3-4.3-16.3-13.9h5c0,6.6,5.5,9.5,11.5,9.5c4.7,0,10-1.5,10-7.2c0-5.4-6.3-6.3-12.6-7.7
		c-6.3-1.4-12.6-3.2-12.6-10.4c0-8,7.1-11.5,14.3-11.5c8,0,14.2,3.8,14.5,12.5H507.8z"/>
	<path class="st0" d="M526.1,214.2H513v-4.4h31.5v4.4h-13.1v34.9h-5.2V214.2z"/>
	<path class="st0" d="M547.7,209.7h5.2v39.4h-5.2V209.7z"/>
	<path class="st0" d="M588,221.6c-1.1-5.6-5.6-8.4-11-8.4c-9.4,0-13.3,7.7-13.3,15.9c0,9,4,16.5,13.4,16.5c6.9,0,10.9-4.9,11.4-11.4
		h5.2c-1,9.8-7.1,15.8-17,15.8c-12.2,0-18.2-9-18.2-20.5c0-11.4,6.5-20.7,18.6-20.7c8.2,0,15,4.4,16.2,12.8H588z"/>
	<path class="st0" d="M621.5,221.3c-0.6-5.6-4.4-8-9.8-8c-4.4,0-8.8,1.6-8.8,6.7c0,4.8,6.3,5.6,12.6,7c6.3,1.4,12.6,3.6,12.6,11.4
		c0,8.4-8.2,11.7-15.4,11.7c-8.8,0-16.3-4.3-16.3-13.9h5c0,6.6,5.5,9.5,11.5,9.5c4.7,0,10-1.5,10-7.2c0-5.4-6.3-6.3-12.6-7.7
		c-6.3-1.4-12.6-3.2-12.6-10.4c0-8,7.1-11.5,14.3-11.5c8,0,14.2,3.8,14.5,12.5H621.5z"/>
</g>
<path class="st1" d="M368.1,268.6h-46V41c0-15.8,12.9-28.7,28.7-28.7h111c17.9,0,37.7,7.3,53.1,19.4c20.2,15.9,31.3,39.2,31.3,65.6
	c0,33-13,54.2-23.9,66.3c-14.6,16.1-34.2,25.4-53.8,25.4H381v-46h87.4c5.1,0,12.9-2.7,19.7-10.2c5.5-6,12-17.1,12-35.4
	c0-12.5-4.5-22.1-13.8-29.5c-8.3-6.5-18.5-9.5-24.6-9.5h-93.7V268.6z"/>
<path class="st1" d="M275.7,12.3H127.8v46h120.7c6.6,0,11.9,5.3,11.9,11.9v7H135c-6.7,0-24.5,0-35.5,14.4
	c-7.7,10.1-8.3,22.7-8.3,33.6v16.9c0,29.6,16,46.7,43.8,46.7h169.5V41.1C304.5,25.2,291.6,12.3,275.7,12.3z M260.4,147H236
	c0,0,0,0,0,0h-88.2c-7.7,0-14-6.3-14-14c0-7.7,6.3-14,14-14h53.7H236h24.5V147z"/>
</svg>
