<svg xmlns="http://www.w3.org/2000/svg" xmlns:xlink="http://www.w3.org/1999/xlink" width="306.081" height="112" viewBox="0 0 306.081 112">
  <defs>
    <linearGradient id="linear-gradient" y1="0.5" x2="1" y2="0.5" gradientUnits="objectBoundingBox">
      <stop offset="0" stop-color="#00a14b"/>
      <stop offset="1" stop-color="#8dc63f"/>
    </linearGradient>
    <linearGradient id="linear-gradient-2" x1="-0.286" y1="3.572" x2="-1.205" y2="2.496" gradientUnits="objectBoundingBox">
      <stop offset="0" stop-color="#39b54a"/>
      <stop offset="1" stop-color="#d7df23"/>
    </linearGradient>
    <linearGradient id="linear-gradient-3" x1="1" y1="0.5" x2="0" y2="0.5" gradientUnits="objectBoundingBox">
      <stop offset="0" stop-color="#f7941d"/>
      <stop offset="1" stop-color="#ffca40"/>
    </linearGradient>
    <linearGradient id="linear-gradient-4" x1="-68.245" y1="48.813" x2="-68.245" y2="47.773" xlink:href="#linear-gradient-3"/>
    <linearGradient id="linear-gradient-5" x1="-102.671" y1="58.006" x2="-102.671" y2="57.197" xlink:href="#linear-gradient-3"/>
    <linearGradient id="linear-gradient-6" x1="-53.39" y1="93.641" x2="-53.39" y2="93.171" xlink:href="#linear-gradient-3"/>
    <linearGradient id="linear-gradient-7" x1="-38.259" y1="192.093" x2="-38.259" y2="191.646" xlink:href="#linear-gradient-3"/>
    <linearGradient id="linear-gradient-8" x1="-33.024" y1="394.321" x2="-33.024" y2="391.557" xlink:href="#linear-gradient-3"/>
    <linearGradient id="linear-gradient-9" x1="-33.83" y1="82.909" x2="-33.83" y2="81.535" xlink:href="#linear-gradient-3"/>
    <linearGradient id="linear-gradient-10" x1="0" y1="0.5" x2="1" y2="0.5" xlink:href="#linear-gradient"/>
    <linearGradient id="linear-gradient-11" y1="0.5" x2="1" y2="0.5" gradientUnits="objectBoundingBox">
      <stop offset="0" stop-color="#5080b1"/>
      <stop offset="0.143" stop-color="#477bae"/>
      <stop offset="0.38" stop-color="#2a6fa5"/>
      <stop offset="0.584" stop-color="#00639b"/>
      <stop offset="1" stop-color="#004e8c"/>
    </linearGradient>
    <linearGradient id="linear-gradient-12" x1="0" y1="0.5" x2="1.001" y2="0.5" xlink:href="#linear-gradient-11"/>
    <linearGradient id="linear-gradient-13" x1="0" y1="0.5" x2="1" y2="0.5" xlink:href="#linear-gradient-11"/>
    <linearGradient id="linear-gradient-14" x1="0.001" y1="0.5" x2="1.001" y2="0.5" xlink:href="#linear-gradient-11"/>
    <linearGradient id="linear-gradient-15" x1="0" y1="0.5" x2="1" y2="0.5" xlink:href="#linear-gradient-11"/>
    <linearGradient id="linear-gradient-16" x1="0" y1="0.5" x2="1" y2="0.5" xlink:href="#linear-gradient-11"/>
    <linearGradient id="linear-gradient-17" x1="0" y1="0.5" x2="1" y2="0.5" xlink:href="#linear-gradient-11"/>
    <linearGradient id="linear-gradient-18" x1="0.001" y1="0.5" x2="1" y2="0.5" xlink:href="#linear-gradient-11"/>
    <linearGradient id="linear-gradient-19" x1="0" y1="0.5" x2="1" y2="0.5" xlink:href="#linear-gradient-11"/>
    <linearGradient id="linear-gradient-20" x1="0" y1="0.5" x2="1" y2="0.5" xlink:href="#linear-gradient-11"/>
    <linearGradient id="linear-gradient-21" y1="0.5" x2="1" y2="0.5" gradientUnits="objectBoundingBox">
      <stop offset="0" stop-color="#5080b1"/>
      <stop offset="0.342" stop-color="#477bae"/>
      <stop offset="0.469" stop-color="#4279ac"/>
      <stop offset="0.539" stop-color="#3171a6"/>
      <stop offset="0.646" stop-color="#00639b"/>
      <stop offset="1" stop-color="#004e8c"/>
    </linearGradient>
    <linearGradient id="linear-gradient-22" x1="0" y1="0.5" x2="1" y2="0.5" xlink:href="#linear-gradient"/>
  </defs>
  <g id="Footer_Logo" data-name="Footer Logo" transform="translate(-564.086 -1837)">
    <g id="Canandaigua_Home_page" data-name="Canandaigua Home page" transform="translate(495 1839.468)">
      <g id="Logo_vector_4c_process_new_gradation" data-name="Logo vector 4c process new gradation" transform="translate(69.086 -2.468)">
        <path id="Path_3455" data-name="Path 3455" d="M-297.934-463.418s14.183-7.676,38.786-7.676,45.252,11.873,45.252,11.873-18.984-16.755-44.9-16.755S-297.934-463.418-297.934-463.418Z" transform="translate(519.977 506.068)" fill="url(#linear-gradient)"/>
        <path id="Path_3456" data-name="Path 3456" d="M-310.874-482.264a50,50,0,0,1,14.98,6.315c6.163,4.146,8.03,7.777,8.03,7.777a21.93,21.93,0,0,1,2.582-1.483,14.273,14.273,0,0,1,2.966-1.1s-2.32-3.732-9.583-7.2A49.053,49.053,0,0,0-310.874-482.264Z" transform="translate(515.456 503.871)" fill="url(#linear-gradient-2)"/>
        <g id="Group_8407" data-name="Group 8407" transform="translate(217.887)">
          <path id="Path_3457" data-name="Path 3457" d="M-278.539-484.537s12.65-2.149,16.241,9.956c3.046-.262,5.73-.192,5.73-.192a17.987,17.987,0,0,0-15.232-13.3,23.817,23.817,0,0,0-23.181,9.886s6.516,2.976,10.239,8.635c5.134-2.582,10.239-3.964,17.713-4.781C-267.08-483.831-278.539-484.537-278.539-484.537Z" transform="translate(303.122 501.756)" fill="url(#linear-gradient-3)"/>
          <path id="Path_3458" data-name="Path 3458" d="M-274.664-486.387c3.924-5.145,3.631-9.19,3.319-10.723C-272.465-496.021-274.976-492.823-274.664-486.387Z" transform="translate(310.212 498.684)" fill="url(#linear-gradient-4)"/>
          <path id="Path_3459" data-name="Path 3459" d="M-284.537-498.276c-.555,1.463-1.473,5.407,1.5,11.126C-281.642-493.455-283.6-497.016-284.537-498.276Z" transform="translate(306.568 498.276)" fill="url(#linear-gradient-5)"/>
          <path id="Path_3460" data-name="Path 3460" d="M-289.476-486.159c-1.15-5.588-3.964-7.666-5.124-8.312C-294.52-493.12-293.874-489.65-289.476-486.159Z" transform="translate(303.255 499.606)" fill="url(#linear-gradient-6)"/>
          <path id="Path_3461" data-name="Path 3461" d="M-299.067-484.6a12.639,12.639,0,0,0,5.417,2.2,14.757,14.757,0,0,0-2.471-2.381,8.591,8.591,0,0,0-4.892-1.9A7.442,7.442,0,0,0-299.067-484.6Z" transform="translate(301.014 502.33)" fill="url(#linear-gradient-7)"/>
          <path id="Path_3462" data-name="Path 3462" d="M-255.991-480.519c-1.11-.5-4.025-1.362-8.483.656C-259.773-478.542-256.989-479.873-255.991-480.519Z" transform="translate(313.781 504.264)" fill="url(#linear-gradient-8)"/>
          <path id="Path_3463" data-name="Path 3463" d="M-268.1-483.793c5.215-2.1,6.819-5.256,7.273-6.537C-262.148-490.017-265.447-488.746-268.1-483.793Z" transform="translate(312.514 501.053)" fill="url(#linear-gradient-9)"/>
        </g>
        <path id="Path_3464" data-name="Path 3464" d="M-404.79-463.527a5.834,5.834,0,0,1-4.741-2.068,7.927,7.927,0,0,1-1.806-5.225c0-4.64,3.228-8.11,7.515-8.11a6.99,6.99,0,0,1,3.006.635v3.732a3.734,3.734,0,0,0-3.167-2.149c-2,0-3.188,1.977-3.188,5.356,0,3.47,1.271,5.6,3.379,5.6a3.934,3.934,0,0,0,2.592-1.1l1.16,1.382A6.53,6.53,0,0,1-404.79-463.527Zm7.515-11.409a1.8,1.8,0,0,1-1.957-1.826,1.821,1.821,0,0,1,2.017-1.806,1.8,1.8,0,0,1,1.937,1.806A1.8,1.8,0,0,1-397.275-474.935Zm-1.876,11.036a38.364,38.364,0,0,0,.131-4.085v-1.6a41.365,41.365,0,0,0-.131-4.57h3.692a38.985,38.985,0,0,0-.131,4.418v1.6a37.127,37.127,0,0,0,.131,4.237Zm9.24.333a3.362,3.362,0,0,1-2.875-1.059c-.373-.5-.393-.746-.393-3.753v-3.884h-1.362v-1.886h1.362v-.706c0-.656-.02-1.231-.091-2.5h3.672l-.02.746c-.02.878-.071,1.493-.071,1.755v.706h1.957v1.886h-1.957v3.884c0,1.886.02,1.977.222,2.33a1.164,1.164,0,0,0,1.029.535,5.008,5.008,0,0,0,.787-.071v1.695A7.242,7.242,0,0,1-389.911-463.567Zm9.5-1.846c-1.695,4.237-3.167,5.649-5.911,5.649a4,4,0,0,1-1.14-.131v-2.421a4.082,4.082,0,0,0,1.644.313c1.14,0,1.906-.615,1.906-1.543a3.982,3.982,0,0,0-.434-1.584,57.62,57.62,0,0,1-2.855-9.028h3.732a32.117,32.117,0,0,0,.817,3.49l.767,2.945.414-1.564a23.973,23.973,0,0,0,.9-4.882h2.794A49.9,49.9,0,0,1-380.409-465.413Zm14.859,1.8c-3.056,0-5.074-2.128-5.074-5.407a5.178,5.178,0,0,1,5.145-5.427c3.036,0,5.074,2.179,5.074,5.387S-362.544-463.617-365.55-463.617Zm.04-9.008c-.918,0-1.453,1.342-1.453,3.712s.464,3.47,1.432,3.47,1.453-1.16,1.453-3.6C-364.088-471.566-364.5-472.625-365.51-472.625Zm11.187-4.015a1.149,1.149,0,0,0-1.211,1.231,2.289,2.289,0,0,0,.393,1.251h1.866v1.886h-2v2.683c0,3.783.02,4.307.131,5.689h-3.712a51.23,51.23,0,0,0,.222-5.871v-2.5h-1.382v-1.886h1.382c0-1.866.172-2.5.817-3.248a4.612,4.612,0,0,1,3.49-1.362,4.173,4.173,0,0,1,1.382.2v2.391A2.43,2.43,0,0,0-354.323-476.64Z" transform="translate(480.355 505.036)" fill="url(#linear-gradient-10)"/>
        <path id="Path_3465" data-name="Path 3465" d="M-424.929-474.557l1.009,14.939h-1.009q-2.012-6.7-5.73-9.654a13.964,13.964,0,0,0-8.948-2.945A14.549,14.549,0,0,0-447.514-470a14.7,14.7,0,0,0-5.558,7.081,31.506,31.506,0,0,0-2.028,12.085,25.563,25.563,0,0,0,1.917,10.34,14.286,14.286,0,0,0,5.75,6.708,16.554,16.554,0,0,0,8.766,2.33,15.064,15.064,0,0,0,7.545-1.836q3.268-1.831,7.192-7.273l1.009.646a23.032,23.032,0,0,1-7.717,8.584,19.5,19.5,0,0,1-10.461,2.724q-10.925,0-16.917-8.1a23.137,23.137,0,0,1-4.469-14.193,25.171,25.171,0,0,1,2.945-12.085,21.391,21.391,0,0,1,8.12-8.544,21.938,21.938,0,0,1,11.288-3.026,20.753,20.753,0,0,1,9.4,2.33,5.128,5.128,0,0,0,1.947.716,2.126,2.126,0,0,0,1.523-.615,5.063,5.063,0,0,0,1.2-2.431h1.13Z" transform="translate(462.484 506.564)" fill="url(#linear-gradient-11)"/>
        <path id="Path_3466" data-name="Path 3466" d="M-416.3-437.614a50.51,50.51,0,0,1-5.74,4.085,8.705,8.705,0,0,1-3.722.807,6.689,6.689,0,0,1-5.074-2.108,7.711,7.711,0,0,1-2-5.538,7.08,7.08,0,0,1,.968-3.763,12.762,12.762,0,0,1,4.62-4.146,71.136,71.136,0,0,1,10.935-4.731v-1.17c0-2.956-.474-4.993-1.412-6.093a5.1,5.1,0,0,0-4.1-1.654,4.582,4.582,0,0,0-3.238,1.1,3.322,3.322,0,0,0-1.231,2.522l.061,1.876a3.259,3.259,0,0,1-.757,2.3,2.586,2.586,0,0,1-2,.807,2.532,2.532,0,0,1-1.957-.837,3.332,3.332,0,0,1-.767-2.3q0-2.784,2.855-5.114c1.9-1.553,4.57-2.34,8-2.34a13.886,13.886,0,0,1,6.486,1.332,6.084,6.084,0,0,1,2.814,3.147,17.563,17.563,0,0,1,.585,5.7v10.077a45.48,45.48,0,0,0,.161,5.205,2.175,2.175,0,0,0,.535,1.281,1.3,1.3,0,0,0,.857.323,1.786,1.786,0,0,0,.908-.232,20.256,20.256,0,0,0,2.623-2.36v1.816q-3.631,4.857-6.93,4.862a3.165,3.165,0,0,1-2.532-1.1A6,6,0,0,1-416.3-437.614Zm0-2.108V-451.03a66.743,66.743,0,0,0-6.315,2.754,11.013,11.013,0,0,0-3.662,2.976,5.751,5.751,0,0,0-1.1,3.409,5.566,5.566,0,0,0,1.392,3.874,4.215,4.215,0,0,0,3.208,1.543Q-420.313-436.489-416.3-439.722Z" transform="translate(472.843 510.283)" fill="url(#linear-gradient-12)"/>
        <path id="Path_3467" data-name="Path 3467" d="M-404.506-457.612q5.22-6.295,9.946-6.284a7.063,7.063,0,0,1,4.176,1.221,8.084,8.084,0,0,1,2.784,4,18.484,18.484,0,0,1,.716,5.962v12.67a10.664,10.664,0,0,0,.454,3.823,2.7,2.7,0,0,0,1.15,1.271,6.5,6.5,0,0,0,2.935.454v1.16h-14.677v-1.16h.615a4.887,4.887,0,0,0,2.9-.635,3.318,3.318,0,0,0,1.15-1.866,18.3,18.3,0,0,0,.131-3.046V-452.2a12.412,12.412,0,0,0-1.049-5.881,3.764,3.764,0,0,0-3.551-1.826c-2.572,0-5.124,1.4-7.676,4.217v15.656a11.359,11.359,0,0,0,.353,3.722,2.974,2.974,0,0,0,1.251,1.372,7.705,7.705,0,0,0,3.228.444v1.16h-14.677v-1.16h.646q2.27,0,3.057-1.15c.525-.767.8-2.229.8-4.388v-11.025a48.269,48.269,0,0,0-.242-6.516,2.792,2.792,0,0,0-.746-1.584,2.017,2.017,0,0,0-1.342-.424,6.212,6.212,0,0,0-2.169.484l-.484-1.17,8.947-3.631h1.392v6.284Z" transform="translate(479.132 510.289)" fill="url(#linear-gradient-13)"/>
        <path id="Path_3468" data-name="Path 3468" d="M-375.156-437.614a50.52,50.52,0,0,1-5.74,4.085,8.718,8.718,0,0,1-3.732.807,6.7,6.7,0,0,1-5.074-2.108,7.711,7.711,0,0,1-2-5.538,7.08,7.08,0,0,1,.968-3.763,12.762,12.762,0,0,1,4.62-4.146,71.136,71.136,0,0,1,10.935-4.731v-1.17c0-2.956-.474-4.993-1.412-6.093a5.1,5.1,0,0,0-4.1-1.654,4.582,4.582,0,0,0-3.238,1.1,3.322,3.322,0,0,0-1.231,2.522l.071,1.876a3.217,3.217,0,0,1-.767,2.3,2.586,2.586,0,0,1-2,.807,2.532,2.532,0,0,1-1.957-.837,3.332,3.332,0,0,1-.767-2.3q0-2.784,2.855-5.114c1.906-1.553,4.57-2.34,8-2.34a13.842,13.842,0,0,1,6.476,1.332,6.145,6.145,0,0,1,2.824,3.147,17.863,17.863,0,0,1,.585,5.7v10.077a45.469,45.469,0,0,0,.161,5.205,2.175,2.175,0,0,0,.535,1.281,1.3,1.3,0,0,0,.857.323,1.786,1.786,0,0,0,.908-.232,20.257,20.257,0,0,0,2.623-2.36v1.816q-3.631,4.857-6.93,4.862a3.165,3.165,0,0,1-2.532-1.1A6.068,6.068,0,0,1-375.156-437.614Zm0-2.108V-451.03a65.5,65.5,0,0,0-6.315,2.754,11.013,11.013,0,0,0-3.662,2.976,5.752,5.752,0,0,0-1.1,3.409,5.566,5.566,0,0,0,1.392,3.874,4.215,4.215,0,0,0,3.208,1.543C-380-436.484-377.829-437.564-375.156-439.722Z" transform="translate(487.216 510.283)" fill="url(#linear-gradient-14)"/>
        <path id="Path_3469" data-name="Path 3469" d="M-363.356-457.612q5.22-6.295,9.946-6.284a7.063,7.063,0,0,1,4.176,1.221,8.147,8.147,0,0,1,2.784,4,18.538,18.538,0,0,1,.706,5.962v12.67a10.662,10.662,0,0,0,.454,3.823,2.7,2.7,0,0,0,1.15,1.271,6.526,6.526,0,0,0,2.935.454v1.16h-14.677v-1.16h.615a4.888,4.888,0,0,0,2.9-.635,3.318,3.318,0,0,0,1.15-1.866,18.311,18.311,0,0,0,.131-3.046V-452.2q0-4.055-1.059-5.881A3.764,3.764,0,0,0-355.7-459.9q-3.858,0-7.676,4.217v15.656a11.357,11.357,0,0,0,.353,3.722,2.974,2.974,0,0,0,1.251,1.372,7.705,7.705,0,0,0,3.228.444v1.16h-14.677v-1.16h.646q2.27,0,3.056-1.15c.535-.767.8-2.229.8-4.388v-11.025a48.268,48.268,0,0,0-.242-6.516,2.793,2.793,0,0,0-.746-1.584,2.017,2.017,0,0,0-1.342-.424,6.211,6.211,0,0,0-2.169.484l-.484-1.17,8.947-3.631h1.392v6.284Z" transform="translate(493.503 510.289)" fill="url(#linear-gradient-15)"/>
        <path id="Path_3470" data-name="Path 3470" d="M-330.416-432.664a14.87,14.87,0,0,1-4.247,3.258,10.165,10.165,0,0,1-4.469.989,11.068,11.068,0,0,1-8.494-4.065,15.1,15.1,0,0,1-3.632-10.45,18.915,18.915,0,0,1,4.015-11.681,12.428,12.428,0,0,1,10.34-5.3,8.926,8.926,0,0,1,6.486,2.492V-462.9a44.98,44.98,0,0,0-.242-6.254,2.732,2.732,0,0,0-.757-1.584,1.97,1.97,0,0,0-1.291-.424,6.673,6.673,0,0,0-2.239.525l-.424-1.13,8.847-3.631h1.453v34.317a46.023,46.023,0,0,0,.242,6.365,2.842,2.842,0,0,0,.777,1.6,1.892,1.892,0,0,0,1.251.454,22.242,22.242,0,0,0,3.662-1.211l.363,1.13-10.148,4.327h-1.493v-4.257Zm0-2.27v-15.292a10.207,10.207,0,0,0-1.17-4.015,6.685,6.685,0,0,0-2.572-2.734,6.255,6.255,0,0,0-3.127-.928,6.628,6.628,0,0,0-5.084,2.562q-2.951,3.359-2.945,9.845,0,6.552,2.855,10.027c1.907,2.32,4.015,3.48,6.345,3.48C-334.159-431.988-332.252-432.967-330.416-434.934Z" transform="translate(501.347 506.271)" fill="url(#linear-gradient-16)"/>
        <path id="Path_3471" data-name="Path 3471" d="M-312.265-437.614a51.811,51.811,0,0,1-5.73,4.085,8.718,8.718,0,0,1-3.732.807,6.667,6.667,0,0,1-5.064-2.108,7.7,7.7,0,0,1-1.987-5.538,7.08,7.08,0,0,1,.968-3.763,12.847,12.847,0,0,1,4.62-4.146,71.14,71.14,0,0,1,10.935-4.731v-1.17c0-2.956-.474-4.993-1.412-6.093a5.1,5.1,0,0,0-4.1-1.654,4.582,4.582,0,0,0-3.238,1.1,3.289,3.289,0,0,0-1.231,2.522l.071,1.876a3.263,3.263,0,0,1-.767,2.3,2.594,2.594,0,0,1-1.987.807,2.569,2.569,0,0,1-1.967-.837,3.332,3.332,0,0,1-.767-2.3q0-2.784,2.855-5.114c1.9-1.553,4.57-2.34,8-2.34a13.842,13.842,0,0,1,6.476,1.332,6.1,6.1,0,0,1,2.824,3.147,17.863,17.863,0,0,1,.585,5.7v10.077a45.469,45.469,0,0,0,.161,5.205,2.175,2.175,0,0,0,.535,1.281,1.3,1.3,0,0,0,.857.323,1.786,1.786,0,0,0,.908-.232,20.257,20.257,0,0,0,2.623-2.36v1.816q-3.631,4.857-6.94,4.862a3.131,3.131,0,0,1-2.522-1.1A5.984,5.984,0,0,1-312.265-437.614Zm0-2.108V-451.03a66.743,66.743,0,0,0-6.315,2.754,11.014,11.014,0,0,0-3.662,2.976,5.751,5.751,0,0,0-1.1,3.409,5.566,5.566,0,0,0,1.392,3.874,4.215,4.215,0,0,0,3.208,1.543Q-316.275-436.489-312.265-439.722Z" transform="translate(509.201 510.283)" fill="url(#linear-gradient-17)"/>
        <path id="Path_3472" data-name="Path 3472" d="M-299.9-460.253V-436.4a10.893,10.893,0,0,0,.4,3.712,2.82,2.82,0,0,0,1.2,1.372,6.4,6.4,0,0,0,2.905.454v1.16h-14.425v-1.16a6.679,6.679,0,0,0,2.915-.424,2.919,2.919,0,0,0,1.18-1.392,10.413,10.413,0,0,0,.444-3.722v-11.439a40.769,40.769,0,0,0-.293-6.254,2.579,2.579,0,0,0-.716-1.442,2,2,0,0,0-1.332-.4,6.551,6.551,0,0,0-2.209.484l-.454-1.17,8.947-3.631Zm-2.693-14.072a3.2,3.2,0,0,1,2.32.958,3.168,3.168,0,0,1,.958,2.32,3.207,3.207,0,0,1-.958,2.33,3.138,3.138,0,0,1-2.32.968,3.177,3.177,0,0,1-2.33-.968,3.177,3.177,0,0,1-.968-2.33,3.184,3.184,0,0,1,.958-2.32A3.181,3.181,0,0,1-302.59-474.325Z" transform="translate(515.665 506.645)" fill="url(#linear-gradient-18)"/>
        <path id="Path_3473" data-name="Path 3473" d="M-252.407-463.254v17.986a43.076,43.076,0,0,0,.252,6.3,2.842,2.842,0,0,0,.777,1.6,1.854,1.854,0,0,0,1.251.454,16.619,16.619,0,0,0,3.6-1.211l.454,1.13-10.208,4.327h-1.463v-6.284c-2.552,2.764-4.489,4.5-5.83,5.215a8.876,8.876,0,0,1-4.247,1.069,6.746,6.746,0,0,1-4.328-1.443,7.478,7.478,0,0,1-2.542-3.712,22.456,22.456,0,0,1-.716-6.416v-13.255a6.513,6.513,0,0,0-.454-2.915,3.048,3.048,0,0,0-1.342-1.251,7.889,7.889,0,0,0-3.218-.4v-1.2h10.4v19.862c0,2.764.474,4.58,1.443,5.447a5,5,0,0,0,3.48,1.3,7.249,7.249,0,0,0,3.157-.878,17.117,17.117,0,0,0,4.2-3.339v-16.816c0-1.685-.3-2.824-.918-3.42s-1.9-.908-3.843-.958v-1.2Z" transform="translate(526.097 510.513)" fill="url(#linear-gradient-19)"/>
        <path id="Path_3474" data-name="Path 3474" d="M-239.838-437.614a49.551,49.551,0,0,1-5.74,4.085,8.706,8.706,0,0,1-3.722.807,6.689,6.689,0,0,1-5.074-2.108,7.754,7.754,0,0,1-2-5.538,7.08,7.08,0,0,1,.968-3.763,12.847,12.847,0,0,1,4.62-4.146,71.14,71.14,0,0,1,10.935-4.731v-1.17c0-2.956-.464-4.993-1.412-6.093a5.1,5.1,0,0,0-4.1-1.654,4.582,4.582,0,0,0-3.238,1.1,3.289,3.289,0,0,0-1.231,2.522l.071,1.876a3.259,3.259,0,0,1-.757,2.3,2.586,2.586,0,0,1-2,.807,2.569,2.569,0,0,1-1.967-.837,3.328,3.328,0,0,1-.757-2.3q0-2.784,2.855-5.114c1.9-1.553,4.57-2.34,8-2.34a13.915,13.915,0,0,1,6.486,1.332,6.084,6.084,0,0,1,2.814,3.147,17.563,17.563,0,0,1,.585,5.7v10.077a45.477,45.477,0,0,0,.161,5.205,2.175,2.175,0,0,0,.535,1.281,1.3,1.3,0,0,0,.857.323,1.786,1.786,0,0,0,.908-.232,20.256,20.256,0,0,0,2.623-2.36v1.816q-3.631,4.857-6.93,4.862a3.151,3.151,0,0,1-2.532-1.1A6.056,6.056,0,0,1-239.838-437.614Zm0-2.108V-451.03a66.746,66.746,0,0,0-6.315,2.754,11.013,11.013,0,0,0-3.662,2.976,5.751,5.751,0,0,0-1.1,3.409,5.566,5.566,0,0,0,1.392,3.874,4.215,4.215,0,0,0,3.208,1.543Q-243.847-436.489-239.838-439.722Z" transform="translate(534.5 510.283)" fill="url(#linear-gradient-20)"/>
        <path id="Path_3475" data-name="Path 3475" d="M-227.217-430.023c-13.114,0-21.789,4.509-30.484,7.515a10.074,10.074,0,0,0,5.094-7.7,5.736,5.736,0,0,0-1.8-4.469,8.148,8.148,0,0,0-4.812-2.239q-1.967-.288-8.655-.454c-2.421-.06-3.934-.141-4.539-.222a3.831,3.831,0,0,1-2.088-.746,1.5,1.5,0,0,1-.535-1.069,3.476,3.476,0,0,1,.5-1.574,8.648,8.648,0,0,1,1.927-2.159,16.494,16.494,0,0,0,4.5.646,12.015,12.015,0,0,0,8.524-2.945,9.23,9.23,0,0,0,3.178-7.091,13.921,13.921,0,0,0-.868-4.166c1.644-.01,4.1-.04,4.216-.091a.668.668,0,0,0,.343-.262,2.841,2.841,0,0,0,.161-1.17,2.01,2.01,0,0,0-.192-1.039.517.517,0,0,0-.323-.272c-.121-.04-3.823-.071-5.73-.081a7.526,7.526,0,0,0-1.856-1.806A14.577,14.577,0,0,0-268-463.493a11.822,11.822,0,0,0-8.514,3.178,10.158,10.158,0,0,0-3.319,7.586,9.816,9.816,0,0,0,1.463,5.266,9.859,9.859,0,0,0,4.176,3.712,21.219,21.219,0,0,0-4.257,4.317,5.315,5.315,0,0,0-.928,2.653,2.646,2.646,0,0,0,.7,1.8,7.682,7.682,0,0,0,4.166,2.058c1.513.212,6.355.615,11.207.746q4.993.121,6.678.837a2.429,2.429,0,0,1,1.654,2.4c-.676,6.365-10.915,8.594-15.434,9.119-15.726,1.806-21.254-10.007-53.322-10.007-20.568,0-28.608,7.334-28.608,7.334s14.566-8.3,41.005-2c15.787,3.763,27.1,8.8,39.089,8.272,10.118-.434,22.011-3.1,35.013-7.616,22.253-7.737,35.528,2.33,35.528,2.33S-208.878-430.023-227.217-430.023Zm-47.39-24.6c0-2.633.545-4.59,1.614-5.861a5.081,5.081,0,0,1,4.025-1.917,5.116,5.116,0,0,1,4.237,2.139c1.493,1.947,2.239,4.63,2.239,8.07q0,3.949-1.584,5.8a5.112,5.112,0,0,1-4.055,1.846,5.229,5.229,0,0,1-4.277-2.138Q-274.6-449.5-274.607-454.626Z" transform="translate(500.968 510.43)" fill="url(#linear-gradient-21)"/>
        <path id="Path_3476" data-name="Path 3476" d="M-335.7-414.417a2.663,2.663,0,0,1-2.26-.827c-.292-.393-.313-.585-.313-2.956v-3.056h-1.069v-1.483h1.069v-.555c0-.514-.02-.968-.071-1.977h2.885l-.02.585c-.02.7-.05,1.18-.05,1.392v.555h1.543v1.483h-1.543v3.056c0,1.483.01,1.553.171,1.826a.89.89,0,0,0,.807.414,5.685,5.685,0,0,0,.625-.05v1.332A5.269,5.269,0,0,1-335.7-414.417Zm6.7-.262a26,26,0,0,0,.161-2.976v-1.069a12.221,12.221,0,0,0-.1-1.947.727.727,0,0,0-.706-.676.822.822,0,0,0-.666.363v2.108c0,2.381.02,3.127.1,4.2h-2.855c.091-1.069.111-1.846.111-4.2v-2.885a38.675,38.675,0,0,0-.161-4.449h2.794v3.874a2.739,2.739,0,0,1,1.775-.585,2.181,2.181,0,0,1,1.967.948c.363.625.434,1.16.434,3.248v1.281c0,1.19.02,1.745.071,2.764H-329Zm11.409-4.327-4.307,1.261c.2,1.18.757,1.765,1.695,1.765a2.726,2.726,0,0,0,1.725-.676l.888,1.069a5.438,5.438,0,0,1-3.238,1.13,3.853,3.853,0,0,1-4.065-3.995c0-2.592,1.695-4.519,3.974-4.519a3.324,3.324,0,0,1,3.339,3.49A2.6,2.6,0,0,1-317.592-419.007Zm-3.349-2.623c-.656,0-1.089.968-1.1,2.492l.464-.121c1.412-.363,1.4-.434,1.4-.9C-320.185-421.1-320.457-421.63-320.941-421.63Zm14.617,7.243a4.6,4.6,0,0,1-3.732-1.624,6.234,6.234,0,0,1-1.412-4.116c0-3.652,2.542-6.385,5.911-6.385a5.5,5.5,0,0,1,2.371.5v2.935a2.958,2.958,0,0,0-2.492-1.695c-1.574,0-2.512,1.553-2.512,4.217,0,2.734,1,4.408,2.663,4.408a3.111,3.111,0,0,0,2.038-.867l.918,1.089A5.2,5.2,0,0,1-306.325-414.387Zm8.584-.292a28.4,28.4,0,0,0,.151-2.976v-1.069a12.226,12.226,0,0,0-.1-1.947.727.727,0,0,0-.706-.676.805.805,0,0,0-.656.363v2.108c0,2.381.02,3.127.1,4.2h-2.855c.091-1.069.1-1.846.1-4.2v-2.885a38.66,38.66,0,0,0-.161-4.449h2.8v3.874a2.73,2.73,0,0,1,1.785-.585,2.18,2.18,0,0,1,1.967.948c.363.625.434,1.16.434,3.248v1.281c0,1.19.01,1.745.061,2.764h-2.925Zm8.1.222c-2.4,0-3.995-1.674-3.995-4.257a4.07,4.07,0,0,1,4.055-4.267,3.912,3.912,0,0,1,3.995,4.237A4.006,4.006,0,0,1-289.64-414.458Zm.04-7.081c-.726,0-1.14,1.049-1.14,2.925s.363,2.734,1.13,2.734,1.14-.918,1.14-2.835C-288.48-420.712-288.8-421.539-289.6-421.539Zm10.067,6.547a4.189,4.189,0,0,1-2.381.555,10.007,10.007,0,0,1-2.824-.383v-2.391a3.679,3.679,0,0,0,2.683,1.332c.615,0,1.11-.343,1.11-.8,0-.343-.232-.565-.777-.827-.393-.182-.393-.182-1.4-.615a2.179,2.179,0,0,1-1.594-2.038c0-1.654,1.644-2.885,3.853-2.885a10.385,10.385,0,0,1,1.695.151l.212,2.078a3.949,3.949,0,0,0-2.108-.746c-.605,0-1,.272-1,.716,0,.393.192.535,1.311,1a6.208,6.208,0,0,1,1.745.928,2.344,2.344,0,0,1,.736,1.725A2.544,2.544,0,0,1-279.533-414.992Zm9.341-4.015-4.3,1.261c.2,1.18.757,1.765,1.695,1.765a2.747,2.747,0,0,0,1.725-.676l.888,1.069a5.415,5.415,0,0,1-3.238,1.13,3.845,3.845,0,0,1-4.055-3.995c0-2.592,1.695-4.519,3.974-4.519a3.324,3.324,0,0,1,3.339,3.49C-270.172-419.38-270.172-419.209-270.192-419.007Zm-3.359-2.623c-.656,0-1.089.968-1.11,2.492l.464-.121c1.412-.363,1.4-.434,1.4-.9C-272.784-421.1-273.067-421.63-273.551-421.63Zm8.635,6.95a22.362,22.362,0,0,0,.121-3.147v-.968a8,8,0,0,0-.091-1.846.584.584,0,0,0-.575-.474c-.313,0-.514.141-.8.484v3.228a21.51,21.51,0,0,0,.071,2.714h-2.835c.071-1.11.091-1.725.091-2.744v-1.039a26.974,26.974,0,0,0-.192-4.287h2.613l.121.827a2.616,2.616,0,0,1,2.038-1,2.1,2.1,0,0,1,2.007,1.221c.2.5.222.656.222,2.956v1.019A24.224,24.224,0,0,0-262-414.7h-2.915Zm12.791.292a8.444,8.444,0,0,1-3.49-.777V-418a4.7,4.7,0,0,0,3.581,1.907,1.373,1.373,0,0,0,1.5-1.3c0-.706-.414-1.13-1.8-1.886a13.042,13.042,0,0,1-2.2-1.382,2.636,2.636,0,0,1-.948-2.128c0-2.249,1.937-3.712,4.872-3.712a7.992,7.992,0,0,1,2.229.293v2.613a3.782,3.782,0,0,0-2.714-1.14c-.918,0-1.483.424-1.483,1.15,0,.605.192.777,1.785,1.614a10.769,10.769,0,0,1,2.179,1.352,3.157,3.157,0,0,1,1.069,2.492C-247.536-415.91-249.4-414.387-252.125-414.387Zm9.563-.121a2.167,2.167,0,0,1-1.019-.222v1.1c0,.625.04,1.16.141,2.28h-2.976c.121-1.5.141-2.381.141-5.266v-2.421c0-3.127,0-3.127-.141-3.722h2.6l.141.7a2.5,2.5,0,0,1,1.937-.867c1.755,0,2.885,1.422,2.885,3.571C-238.84-416.586-240.434-414.508-242.563-414.508Zm-.151-6.668a1.239,1.239,0,0,0-.867.393v4.832a.763.763,0,0,0,.4.121c.918,0,1.5-1.241,1.5-3.2C-241.675-420.47-242.018-421.176-242.714-421.176Zm8.746,6.718c-2.4,0-3.995-1.674-3.995-4.257a4.068,4.068,0,0,1,4.045-4.267,3.912,3.912,0,0,1,3.995,4.237A3.987,3.987,0,0,1-233.968-414.458Zm.04-7.081c-.726,0-1.14,1.049-1.14,2.925s.363,2.734,1.12,2.734,1.14-.918,1.14-2.835C-232.808-420.712-233.131-421.539-233.928-421.539Zm8.03,7.122a2.663,2.663,0,0,1-2.26-.827c-.293-.393-.313-.585-.313-2.956v-3.056h-1.069v-1.483h1.069v-.555c0-.514-.01-.968-.071-1.977h2.885l-.02.585c-.02.7-.05,1.18-.05,1.392v.555h1.543v1.483h-1.543v3.056c0,1.483.02,1.553.182,1.826a.89.89,0,0,0,.807.414,5.5,5.5,0,0,0,.625-.05v1.332A5.436,5.436,0,0,1-225.9-414.417Z" transform="translate(505.51 523.351)" fill="url(#linear-gradient-22)"/>
      </g>
    </g>
  </g>
</svg>
