<?xml version="1.0" encoding="utf-8"?>
<!-- Generator: Adobe Illustrator 25.2.3, SVG Export Plug-In . SVG Version: 6.00 Build 0)  -->
<svg version="1.1" id="Layer_1" xmlns="http://www.w3.org/2000/svg" xmlns:xlink="http://www.w3.org/1999/xlink" x="0px" y="0px"
	 viewBox="0 0 396.4 72.8" style="enable-background:new 0 0 396.4 72.8;" xml:space="preserve">
<style type="text/css">
	.st0{fill:#CE0E2D;}
	.st1{fill:#0068AD;}
	.st2{fill:#FFFFFF;}
</style>
<g>
	<g>
		<path class="st0" d="M242.5,5.7l0.3,15.8h0.1l6.4-15.8H261l-5.2,26.7h-7.7l3.9-19.9h-0.1l-8.2,19.9h-5.9l-0.5-19.9h-0.1l-3.9,19.9
			h-7.7l5.2-26.7C230.8,5.7,242.5,5.7,242.5,5.7z"/>
		<path class="st0" d="M280.3,5.7l2.5,26.7H274l0.1-4.7h-6.6l-1.7,4.7h-8.6L270,5.7H280.3z M274.1,11.2l-4.5,11.3h4.6L274.1,11.2
			L274.1,11.2z"/>
		<path class="st0" d="M299.9,12.8c0.2-0.8,0.1-1.5-0.2-2c-0.3-0.6-0.8-0.8-1.6-0.8c-0.9,0-1.6,0.2-2.1,0.7s-0.8,1-0.9,1.6
			c-0.2,0.9,0,1.6,0.6,2.1c0.6,0.5,1.3,1,2.3,1.3c0.9,0.4,1.9,0.8,3,1.1c1.1,0.4,2.1,0.9,2.9,1.5c0.9,0.6,1.6,1.4,2,2.4
			c0.5,1,0.5,2.3,0.2,3.9c-0.6,2.8-1.9,4.9-4.1,6.2c-2.2,1.3-5.1,1.9-8.7,1.9c-1.7,0-3.2-0.1-4.5-0.4c-1.3-0.2-2.3-0.6-3.1-1.2
			c-0.8-0.6-1.3-1.4-1.6-2.3c-0.3-1-0.3-2.1,0-3.5l0.2-0.9h8l-0.1,0.6c-0.2,1.1-0.1,2,0.3,2.4c0.4,0.5,1,0.7,1.8,0.7
			c0.9,0,1.6-0.2,2.1-0.7c0.6-0.5,0.9-1.1,1-1.8c0.2-0.9,0-1.6-0.5-2.1s-1.3-0.9-2.1-1.3c-0.9-0.4-1.9-0.7-2.9-1.1
			c-1.1-0.4-2-0.9-2.8-1.5s-1.5-1.4-1.9-2.4s-0.5-2.2-0.2-3.8c0.5-2.7,1.8-4.8,3.8-6.2s4.7-2.1,8.2-2.1c3.6,0,6.1,0.7,7.4,2
			c1.4,1.3,1.8,3.4,1.2,6.3h-7.7L299.9,12.8z"/>
		<path class="st0" d="M309.2,11.7l1.1-5.9h20.6l-1.1,5.9h-6.2l-4,20.8h-8.3l4-20.8C315.3,11.7,309.2,11.7,309.2,11.7z"/>
		<path class="st0" d="M351.5,5.7l-1.1,5.7h-10.5L339,16h9.8l-1.1,5.4h-9.8l-1,5.3h10.9l-1.1,5.7h-19.2l5.2-26.7
			C332.7,5.7,351.5,5.7,351.5,5.7z"/>
		<path class="st0" d="M366.5,5.7c1.6,0,2.9,0.2,3.9,0.5s1.8,0.8,2.4,1.5c0.6,0.6,0.9,1.4,1.1,2.3c0.1,0.9,0.1,1.8-0.1,2.8
			c-0.3,1.8-1.1,3.2-2.1,4.3c-1.1,1.1-2.6,1.8-4.5,2v0.1c1.9,0.1,3.2,0.7,3.7,1.8c0.5,1,0.6,2.4,0.3,4.2l-0.4,2.3
			c-0.1,0.3-0.1,0.7-0.2,1.1s-0.1,0.7-0.2,1.1c0,0.3-0.1,0.6,0,0.9c0,0.3,0,0.5,0.1,0.6s0.2,0.3,0.3,0.4c0.1,0.1,0.3,0.3,0.5,0.4
			l-0.1,0.4h-8.7c-0.1-0.3-0.2-0.8-0.2-1.2c0-0.5,0-0.9,0.1-1.4c0-0.5,0.1-0.9,0.2-1.4c0.1-0.4,0.1-0.8,0.2-1.1l0.3-1.8
			c0.1-0.7,0.2-1.4,0.2-1.9s-0.1-0.9-0.2-1.2c-0.2-0.3-0.4-0.5-0.7-0.6c-0.3-0.1-0.7-0.2-1.2-0.2H359l-2.1,10.7h-8.3l5.2-26.7h12.7
			L366.5,5.7L366.5,5.7z M361.3,17c1.2,0,2.1-0.3,2.8-0.9c0.7-0.6,1.1-1.4,1.3-2.3c0.2-1.1,0.1-1.9-0.4-2.4
			c-0.5-0.5-1.3-0.7-2.6-0.7h-1.6l-1.2,6.3H361.3z"/>
		<path class="st0" d="M388.6,12.8c0.2-0.8,0.1-1.5-0.2-2c-0.3-0.6-0.8-0.8-1.6-0.8c-0.9,0-1.6,0.2-2.1,0.7s-0.8,1-0.9,1.6
			c-0.2,0.9,0,1.6,0.6,2.1c0.6,0.5,1.3,1,2.3,1.3c0.9,0.4,1.9,0.8,3,1.1c1.1,0.4,2.1,0.9,2.9,1.5c0.9,0.6,1.6,1.4,2,2.4
			c0.5,1,0.5,2.3,0.2,3.9c-0.5,2.8-1.9,4.9-4.1,6.2c-2.2,1.3-5.1,1.9-8.7,1.9c-1.7,0-3.2-0.1-4.5-0.4c-1.3-0.2-2.3-0.6-3.1-1.2
			c-0.8-0.6-1.3-1.4-1.6-2.3c-0.3-1-0.3-2.1,0-3.5l0.2-0.9h8l-0.1,0.6c-0.2,1.1-0.1,2,0.3,2.4c0.4,0.5,1,0.7,1.8,0.7
			c0.9,0,1.6-0.2,2.1-0.7c0.6-0.5,0.9-1.1,1-1.8c0.2-0.9,0-1.6-0.6-2.1c-0.5-0.5-1.3-0.9-2.1-1.3c-0.9-0.4-1.9-0.7-2.9-1.1
			c-1.1-0.4-2-0.9-2.8-1.5s-1.5-1.4-1.9-2.4c-0.5-1-0.5-2.2-0.2-3.8c0.5-2.7,1.8-4.8,3.8-6.2s4.7-2.1,8.2-2.1c3.6,0,6.1,0.7,7.4,2
			c1.4,1.3,1.8,3.4,1.2,6.3h-7.7L388.6,12.8z"/>
		<g>
			<g>
				<path class="st0" d="M196,46.4c0.2-0.8,0.1-1.5-0.2-2c-0.3-0.6-0.8-0.8-1.6-0.8c-0.9,0-1.6,0.2-2.1,0.7s-0.8,1-0.9,1.6
					c-0.2,0.9,0,1.6,0.6,2.1s1.3,1,2.3,1.3c0.9,0.4,2,0.8,3,1.1c1.1,0.4,2.1,0.9,3,1.5s1.6,1.4,2,2.5c0.5,1,0.6,2.3,0.2,3.9
					c-0.5,2.8-1.9,4.9-4.1,6.2c-2.2,1.3-5.1,1.9-8.7,1.9c-1.7,0-3.2-0.1-4.5-0.4c-1.3-0.2-2.3-0.7-3.1-1.2c-0.8-0.6-1.3-1.4-1.6-2.3
					c-0.3-0.9-0.3-2.1,0-3.5l0.2-0.9h8l-0.1,0.6c-0.2,1.1-0.1,2,0.3,2.4c0.4,0.5,1,0.7,1.8,0.7c0.9,0,1.6-0.2,2.1-0.7
					c0.6-0.5,0.9-1.1,1-1.8c0.2-0.9,0-1.6-0.6-2.1c-0.5-0.5-1.3-0.9-2.1-1.3c-0.9-0.4-1.9-0.7-2.9-1.1c-1.1-0.4-2-0.9-2.9-1.5
					c-0.8-0.6-1.5-1.4-2-2.4c-0.4-1-0.5-2.2-0.2-3.8c0.5-2.7,1.8-4.8,3.8-6.2s4.7-2.1,8.2-2.1c3.6,0,6.1,0.7,7.5,2s1.8,3.4,1.2,6.3
					h-7.7L196,46.4z"/>
				<path class="st0" d="M227.3,39.3L227,57.8h0.1l5.8-18.5h8L230.2,66h-9l0.7-18h-0.1l-6.2,18h-9l-0.2-26.7h8l-1.1,18.5h0.1
					l6.6-18.5H227.3z"/>
				<path class="st0" d="M251.2,39.3L246,66h-8.3l5.2-26.7H251.2z"/>
				<path class="st0" d="M266.3,39.3l0.3,15.8h0.1l6.4-15.8h11.8L279.6,66h-7.7l3.9-19.9h-0.1L267.4,66h-5.9L261,46.1h-0.1L257,66
					h-7.7l5.2-26.7H266.3z"/>
				<path class="st0" d="M300.4,39.3l0.3,15.8h0.1l6.4-15.8H319L313.7,66H306l3.9-19.9h-0.1L301.5,66h-5.9l-0.5-19.9H295L291.1,66
					h-7.7l5.2-26.7H300.4z"/>
				<path class="st0" d="M331,39.3L325.8,66h-8.3l5.2-26.7H331z"/>
				<path class="st0" d="M343.8,39.3l2.1,16.5h0.1l3.2-16.5h7.7L351.7,66h-9.1l-2.3-16.5h-0.1L337.1,66h-7.7l5.2-26.7H343.8z"/>
				<path class="st0" d="M379.2,51.5L376.4,66h-5.6l0.3-2.4H371c-0.4,0.6-0.8,1.1-1.4,1.4c-0.6,0.4-1.2,0.7-1.8,0.8
					c-0.6,0.2-1.3,0.3-2,0.4s-1.4,0.1-2.1,0.1c-2.1,0-3.7-0.3-4.8-0.9c-1.1-0.6-1.8-1.5-2.2-2.6c-0.4-1.2-0.5-2.6-0.3-4.3
					s0.5-3.7,0.9-5.9s1-4.2,1.6-5.9s1.5-3.2,2.6-4.3c1.1-1.2,2.5-2.1,4.1-2.7c1.6-0.6,3.7-0.9,6.1-0.9c1.5,0,2.8,0.2,3.9,0.5
					c1.2,0.3,2.1,0.8,2.9,1.6c0.8,0.7,1.3,1.6,1.5,2.8c0.3,1.1,0.3,2.5,0,4.1h-8c0.3-1.4,0.3-2.5,0.2-3.1c-0.1-0.8-0.7-1.2-1.7-1.2
					c-0.7,0-1.2,0.1-1.7,0.4c-0.5,0.3-0.8,0.8-1.2,1.5c-0.3,0.7-0.6,1.6-0.9,2.8s-0.6,2.7-1,4.5c-0.3,1.8-0.6,3.3-0.8,4.5
					c-0.2,1.2-0.2,2.1-0.2,2.8c0.1,0.7,0.2,1.2,0.6,1.5c0.3,0.3,0.8,0.4,1.4,0.4c0.4,0,0.8-0.1,1.2-0.2c0.4-0.2,0.7-0.4,1-0.8
					c0.3-0.4,0.6-1,0.9-1.7s0.5-1.7,0.7-2.8h-2.9l0.9-4.7h10.7L379.2,51.5L379.2,51.5z"/>
			</g>
		</g>
		<g>
			<g>
				<path class="st0" d="M174.7,25c-0.2,1.3-0.2,2.2,0.2,2.6s0.9,0.7,1.7,0.7s1.4-0.2,1.9-0.7c0.5-0.4,0.9-1.3,1.2-2.6l3.7-19.3h8.3
					l-3.4,17.5c-0.4,1.9-0.9,3.4-1.6,4.7c-0.7,1.2-1.6,2.2-2.6,3c-1,0.7-2.3,1.3-3.7,1.5c-1.4,0.3-3,0.4-4.7,0.4s-3.2-0.1-4.5-0.4
					c-1.3-0.3-2.3-0.8-3.1-1.5c-0.8-0.8-1.3-1.7-1.5-3c-0.2-1.2-0.2-2.8,0.2-4.7l3.4-17.5h8.3L174.7,25z"/>
				<path class="st0" d="M208,12.8c0.2-0.8,0.1-1.5-0.2-2c-0.3-0.6-0.8-0.8-1.6-0.8c-0.9,0-1.6,0.2-2.1,0.7s-0.8,1-0.9,1.6
					c-0.2,0.9,0,1.6,0.6,2.1c0.6,0.5,1.3,1,2.3,1.3c0.9,0.4,1.9,0.8,3,1.1c1.1,0.4,2.1,0.9,2.9,1.5c0.9,0.6,1.6,1.4,2,2.5
					c0.5,1,0.5,2.3,0.2,3.9c-0.6,2.8-1.9,4.9-4.1,6.2c-2.2,1.3-5.1,1.9-8.7,1.9c-1.7,0-3.2-0.1-4.5-0.4c-1.3-0.2-2.3-0.7-3.1-1.2
					c-0.8-0.6-1.3-1.4-1.6-2.3s-0.3-2.1,0-3.5l0.2-0.9h8l-0.1,0.6c-0.2,1.1-0.1,2,0.3,2.4c0.4,0.5,1,0.7,1.8,0.7
					c0.9,0,1.6-0.2,2.1-0.7c0.6-0.5,0.9-1.1,1-1.8c0.2-0.9,0-1.6-0.6-2.1c-0.5-0.5-1.3-0.9-2.1-1.3c-0.9-0.4-1.9-0.7-2.9-1.1
					s-2-0.9-2.8-1.5s-1.5-1.4-1.9-2.4s-0.5-2.2-0.2-3.8c0.5-2.7,1.8-4.8,3.8-6.2s4.7-2.1,8.2-2.1c3.6,0,6.1,0.6,7.5,2
					c1.4,1.3,1.8,3.4,1.2,6.3H208V12.8z"/>
			</g>
		</g>
		<path class="st0" d="M191.7,30.2c0,1.4-1.1,2.5-2.5,2.5s-2.5-1.1-2.5-2.5s1.1-2.5,2.5-2.5C190.5,27.7,191.7,28.8,191.7,30.2z"/>
		<path class="st0" d="M218.3,30.2c0,1.4-1.1,2.5-2.5,2.5s-2.5-1.1-2.5-2.5s1.1-2.5,2.5-2.5S218.3,28.8,218.3,30.2z"/>
	</g>
	<g>
		<path class="st0" d="M126.7,4.5c0,0-13.6-4.3-20-4.5C95.8-0.3,85.8,4.8,85.8,4.8s11.6-3.5,19.6-1.2C114.8,6.3,120.7,7.4,126.7,4.5
			"/>
		<path class="st0" d="M98.5,5.2c-12.6-1-20,6.7-28,13.5c9.7-0.9,18.6-5,19.4-5.8C90.8,12.1,94.2,8.2,98.5,5.2"/>
		<path class="st0" d="M75.3,34.4c12.9-2.8,22.5-6.7,41-6.8c1-4.9-2.8-12.9-11.3-11.2c-10.2,2-10.1,8.9-13.2,8.3
			c-5-0.9-1.8-9.3-1.8-9.3s-6.8,4.2-20.4,5.9c-3.7,0.4-13.7,7.5-23,10.4c-11.9,3.6-23.1,3.1-23.1,3.1s6.7,1.7,17.8,2.3
			c4.2,0.2,8.9,0.1,14.3-0.1C62,36.8,68.7,35.9,75.3,34.4"/>
		<path class="st1" d="M150.7,43c0,0-4.8-8.4-19.7-11.3c-11.5-2.2-25.2-2.4-45.9,3.3c-38,10.4-70.4,3.2-85.1-5
			c16.7,24.3,55.5,21.5,87.7,11.6c18.7-5.7,32.8-6.9,43.9-5.5C144.9,37.7,150.7,43,150.7,43"/>
		<path class="st1" d="M157.3,50.9c0,0-5.9-8.8-20.2-11.7c-11.1-2.2-23-2.5-43.6,3.8C58.2,54,26.7,55.2,8.6,42.7
			C25.3,70.3,61,61.3,94.2,50.1c16.6-5.6,29-9.3,44.6-6.7C149.7,45.3,157.3,50.9,157.3,50.9"/>
		<path class="st1" d="M163.2,58.5c0,0-6.4-8.6-20.1-11.7c-11.7-2.6-23-2.5-43.4,4.4C64.5,63.1,37,69.5,19.2,57.3
			c16.7,27.6,47.9,12.1,81.1,0.9c16.5-5.6,28.9-9.9,44.5-7.2C154.3,52.6,163.2,58.5,163.2,58.5"/>
		<path class="st2" d="M166.7,64.3h0.1c0.2,0,0.3-0.1,0.3-0.2s-0.1-0.2-0.3-0.2c-0.1,0-0.1,0-0.2,0L166.7,64.3L166.7,64.3z
			 M166.7,65.1h-0.3v-1.3c0.1,0,0.2,0,0.4,0s0.4,0,0.5,0.1s0.1,0.1,0.1,0.3c0,0.2-0.1,0.3-0.3,0.3l0,0c0.1,0,0.2,0.1,0.2,0.3
			c0,0.2,0,0.3,0.1,0.3h-0.3c0,0-0.1-0.2-0.1-0.3c0-0.1-0.1-0.2-0.3-0.2h-0.1v0.5C166.6,65.1,166.7,65.1,166.7,65.1z M166.9,63.4
			c-0.5,0-0.9,0.4-0.9,1c0,0.5,0.4,1,0.9,1s0.9-0.4,0.9-1C167.8,63.9,167.4,63.4,166.9,63.4L166.9,63.4z M166.9,63.2
			c0.7,0,1.2,0.5,1.2,1.2c0,0.7-0.5,1.2-1.2,1.2s-1.2-0.5-1.2-1.2C165.7,63.7,166.3,63.2,166.9,63.2L166.9,63.2z"/>
	</g>
</g>
</svg>
